<?xml version="1.0" encoding="UTF-8"?>
<svg width="80px" height="80px" viewBox="20 -10 80 80" version="1.1" xmlns="http://www.w3.org/2000/svg" xmlns:xlink="http://www.w3.org/1999/xlink">
    <title>logo</title>
    <g id="logo" stroke="none" stroke-width="1" fill="none" fill-rule="evenodd">
        <g id="icon_website_logo" transform="translate(21.000000, 7.000000)" fill-rule="nonzero">
            <path d="M67.4,45.43 L67.4,45.43 C67.4466667,45.43 67.47,45.4533333 67.47,45.5 L67.47,45.5 C67.47,45.5466667 67.4466667,45.57 67.4,45.57 L67.4,45.57 L47.97,45.57 L47.97,45.57 L38.93,45.57 C38.89,45.57 38.87,45.5466667 38.87,45.5 L38.87,45.5 L38.87,14.88 L24.05,38.8 C24.05,38.8466667 24.03,38.8466667 23.99,38.8 L23.99,38.8 L9.16,14.88 L9.16,45.5 C9.16,45.5466667 9.14,45.57 9.1,45.57 L9.1,45.57 L0.07,45.57 C0.0233333333,45.57 0,45.5466667 0,45.5 L0,45.5 L0,0.06 C0,0.02 0.0233333333,0 0.07,0 L0.07,0 L10.73,0 L10.79,0 L24.05,21.45 L37.25,0 L37.31,0 L47.97,0 C48.0166667,0 48.04,0.02 48.04,0.06 L48.04,0.06 L48.04,26.13 C48.04,28.77 48.5466667,31.2733333 49.56,33.64 C50.58,36 51.9666667,38.0466667 53.72,39.78 C55.48,41.5133333 57.53,42.89 59.87,43.91 C62.2033333,44.9233333 64.7133333,45.43 67.4,45.43 L67.4,45.43 Z" id="svg_5-path" fill="#39842D"></path>
            <path d="M77.68,0 C77.72,0 77.74,0.02 77.74,0.06 L77.74,26.13 C77.74,27.5566667 77.47,28.9 76.93,30.16 C76.39,31.4133333 75.6533333,32.5066667 74.72,33.44 C73.7866667,34.3733333 72.69,35.11 71.43,35.65 C70.1766667,36.19 68.8333333,36.46 67.4,36.46 C65.9733333,36.46 64.63,36.19 63.37,35.65 C62.1166667,35.11 61.0233333,34.3733333 60.09,33.44 C59.1633333,32.5066667 58.4166667,31.4133333 57.85,30.16 C57.2833333,28.9 57,27.5566667 57,26.13 L57,0.06 C57,0.02 57.0233333,0 57.07,0 L77.68,0 Z" id="svg_5-path" fill="#A16840"></path>
        </g>
    </g>
</svg>