<svg width="80" height="80" viewBox="0 0 80 80" fill="none" xmlns="http://www.w3.org/2000/svg">
    <rect width="80" height="80" rx="40" fill="#FFE3E1"/>
    <path d="M38.29 31.86L29.82 46C29.6454 46.3024 29.553 46.6453 29.552 46.9945C29.551 47.3437 29.6415 47.6871 29.8144 47.9905C29.9874 48.2939 30.2367 48.5467 30.5377 48.7238C30.8387 48.9009 31.1808 48.9961 31.53 49H48.47C48.8192 48.9961 49.1613 48.9009 49.4623 48.7238C49.7633 48.5467 50.0127 48.2939 50.1856 47.9905C50.3585 47.6871 50.449 47.3437 50.448 46.9945C50.4471 46.6453 50.3547 46.3024 50.18 46L41.71 31.86C41.5318 31.5661 41.2807 31.3231 40.9812 31.1544C40.6817 30.9858 40.3438 30.8972 40 30.8972C39.6563 30.8972 39.3184 30.9858 39.0188 31.1544C38.7193 31.3231 38.4683 31.5661 38.29 31.86V31.86Z"
          stroke="#DF320C" stroke-width="2" stroke-linecap="round" stroke-linejoin="round"/>
    <path d="M40 37V41" stroke="#DF320C" stroke-width="2" stroke-linecap="round" stroke-linejoin="round"/>
    <path d="M40 44V44.5" stroke="#DF320C" stroke-width="2" stroke-linecap="round" stroke-linejoin="round"/>
</svg>
