<svg width="23" height="19" viewBox="0 0 23 19" fill="none" xmlns="http://www.w3.org/2000/svg">
    <path d="M22.8573 0.431818C22.8573 0.287879 22.7146 0.143939 22.5719 0C22.2864 0 22.001 0 21.7156 0C21.7156 0 1.73548 7.19697 0.593764 8.06061C0.16562 8.34848 0.16562 8.49242 0.0229049 8.49242C-0.11981 9.06818 0.45105 9.35606 0.45105 9.35606L5.58879 11.0833C5.7315 11.0833 5.7315 11.0833 5.87421 11.0833C7.01593 10.3636 17.7196 3.59848 18.2904 3.31061C18.4331 3.31061 18.4331 3.31061 18.4331 3.31061C18.1477 4.17424 9.01394 12.3788 9.01394 12.5227C9.01394 12.5227 8.87123 12.6667 9.01394 12.6667L8.5858 17.7045C8.5858 17.7045 8.44308 19.2879 10.0129 17.7045C11.1547 16.553 12.1537 15.6894 12.7245 15.2576C14.4371 16.553 16.4351 17.8485 17.2914 18.5682C17.5768 18.8561 18.005 19 18.2904 19C18.7186 19 19.1467 18.5682 19.2894 18.1364C19.2894 18.1364 23 3.31061 23 1.29545C23 1.15152 23 1.00758 23 0.863636C22.8573 0.719697 22.8573 0.575758 22.8573 0.431818Z"
          fill="#ABB7BD"/>
</svg>
