<svg width="23" height="19" viewBox="0 0 23 19" fill="none" xmlns="http://www.w3.org/2000/svg">
    <path d="M23 2.19231C22.1375 2.63077 21.275 2.77692 20.2688 2.92308C21.275 2.33846 21.9937 1.46154 22.2812 0.292308C21.4188 0.876923 20.4125 1.16923 19.2625 1.46154C18.4 0.584615 17.1063 0 15.8125 0C13.3687 0 11.2125 2.19231 11.2125 4.82308C11.2125 5.26154 11.2125 5.55385 11.3562 5.84615C7.475 5.7 3.88125 3.8 1.58125 0.876923C1.15 1.60769 1.00625 2.33846 1.00625 3.36154C1.00625 4.96923 1.86875 6.43077 3.1625 7.30769C2.44375 7.30769 1.725 7.01538 1.00625 6.72308C1.00625 9.06154 2.5875 10.9615 4.74375 11.4C4.3125 11.5462 3.88125 11.5462 3.45 11.5462C3.1625 11.5462 2.875 11.5462 2.5875 11.4C3.1625 13.3 4.8875 14.7615 7.04375 14.7615C5.4625 16.0769 3.45 16.8077 1.15 16.8077C0.71875 16.8077 0.43125 16.8077 0 16.8077C2.15625 18.1231 4.6 19 7.1875 19C15.8125 19 20.5562 11.6923 20.5562 5.40769C20.5562 5.26154 20.5562 4.96923 20.5562 4.82308C21.5625 4.09231 22.425 3.21538 23 2.19231Z"
          fill="#ABB7BD"/>
</svg>
