<svg width="21" height="20" viewBox="0 0 21 20" fill="none" xmlns="http://www.w3.org/2000/svg">
    <path d="M10.2528 0C4.59155 0 0 4.59069 0 10.2528C0 14.7828 2.93743 18.6259 7.01206 19.9819C7.52385 20.0767 7.6896 19.7589 7.6896 19.4889V17.5801C4.83761 18.2004 4.24381 16.3703 4.24381 16.3703C3.7773 15.1853 3.10489 14.87 3.10489 14.87C2.17445 14.2335 3.17581 14.2471 3.17581 14.2471C4.20536 14.3189 4.74705 15.304 4.74705 15.304C5.66126 16.871 7.14535 16.4182 7.73061 16.1559C7.82204 15.4937 8.08775 15.0409 8.38167 14.7854C6.10469 14.5248 3.71066 13.6456 3.71066 9.71795C3.71066 8.59783 4.11137 7.68362 4.7667 6.96593C4.66075 6.70704 4.3096 5.66382 4.86666 4.25235C4.86666 4.25235 5.7279 3.97723 7.68704 5.30326C8.5047 5.07599 9.38132 4.96236 10.2528 4.95808C11.1243 4.96236 12.0018 5.07599 12.8211 5.30326C14.7786 3.97723 15.6381 4.25235 15.6381 4.25235C16.196 5.66467 15.8449 6.7079 15.7389 6.96593C16.3968 7.68362 16.7941 8.59868 16.7941 9.71795C16.7941 13.6559 14.3958 14.5231 12.1128 14.7769C12.4802 15.0947 12.816 15.7184 12.816 16.6753V19.4889C12.816 19.7614 12.98 20.0818 13.5004 19.981C17.5716 18.6234 20.5056 14.7811 20.5056 10.2528C20.5056 4.59069 15.9149 0 10.2528 0Z"
          fill="#ABB7BD"/>
</svg>
