<svg width="108" height="23" viewBox="0 0 108 23" fill="none" xmlns="http://www.w3.org/2000/svg">
    <path fill-rule="evenodd" clip-rule="evenodd" d="M26.8498 14.9508C27.1636 13.8361 27.3205 12.5645 27.3205 11.136C27.3205 9.7183 27.1636 8.45752 26.8498 7.35366C26.5359 6.2498 26.0922 5.28662 25.5186 4.46414C24.9559 3.63083 24.2741 2.9328 23.4733 2.37005C22.6724 1.79648 21.7796 1.33654 20.7948 0.990227C19.8208 0.643918 18.771 0.395009 17.6455 0.243499C16.52 0.0811662 15.3458 0 14.1229 0H0V4.73007H10.1502C11.8229 4.73007 13.2391 4.88241 14.3988 5.1871C15.5697 5.49179 16.5176 5.92424 17.2424 6.48448C17.9784 7.04471 18.5081 7.72288 18.8315 8.519C19.166 9.30529 19.3333 10.185 19.3333 11.158C19.3333 12.0131 19.1939 12.7601 18.9151 13.3989C18.6475 14.0378 18.2795 14.5882 17.8111 15.0501C17.3539 15.5022 16.8187 15.8856 16.2053 16.2001C15.592 16.5146 14.9452 16.775 14.265 16.9814L14.6771 17.4198L16.2253 19.0663L18.8589 21.8672C19.5462 21.7208 20.2023 21.5364 20.8272 21.3142C21.8012 20.9679 22.6832 20.508 23.4733 19.9344C24.2741 19.3608 24.9559 18.6628 25.5186 17.8403C26.0922 17.0178 26.5359 16.0547 26.8498 14.9508ZM12.0306 22.3045L7.75977 17.7258L7.57427 17.5269H6.50381H0.799877V22.3045H12.0306ZM12.8767 10.126C12.9994 10.4012 13.0607 10.7354 13.0607 11.1285C13.0607 11.5216 12.9994 11.8558 12.8767 12.131C12.7652 12.4062 12.5645 12.6323 12.2745 12.8092C11.9846 12.9763 11.5943 13.0991 11.1036 13.1778C10.6241 13.2564 10.022 13.2957 9.29714 13.2957H0.799877V8.96129H9.29714C10.022 8.96129 10.6241 9.0006 11.1036 9.07923C11.5943 9.15786 11.9846 9.28563 12.2745 9.46255C12.5645 9.62964 12.7652 9.85078 12.8767 10.126Z" fill="#26292E"/>
    <path d="M58.3653 11.1389C58.3653 12.3293 58.2345 13.389 57.973 14.3179C57.7114 15.2378 57.3417 16.0404 56.8637 16.7258C56.3947 17.4112 55.8266 17.9929 55.1592 18.4709C54.5009 18.9489 53.7659 19.3322 52.9542 19.6208C52.1425 19.9093 51.2677 20.1213 50.3298 20.2566C49.3919 20.3828 48.4134 20.4459 47.3943 20.4459H35.5982V1.85889H47.3673C48.3864 1.85889 49.3649 1.92653 50.3028 2.0618C51.2407 2.18806 52.1155 2.39549 52.9271 2.68408C53.7478 2.97267 54.4918 3.35595 55.1592 3.83393C55.8266 4.30289 56.3947 4.88458 56.8637 5.579C57.3417 6.26441 57.7114 7.06705 57.973 7.98693C58.2345 8.90682 58.3653 9.95747 58.3653 11.1389ZM53.3059 11.1389C53.3059 10.2461 53.1887 9.47047 52.9542 8.81212C52.7287 8.15378 52.359 7.61267 51.8449 7.1888C51.3399 6.75591 50.677 6.43576 49.8564 6.22833C49.0357 6.01189 48.0346 5.90367 46.8532 5.90367H40.6169V16.4012H46.8532C48.0346 16.4012 49.0357 16.2975 49.8564 16.09C50.677 15.8736 51.3399 15.5489 51.8449 15.116C52.359 14.6741 52.7287 14.124 52.9542 13.4657C53.1887 12.8073 53.3059 12.0317 53.3059 11.1389Z" fill="#26292E"/>
    <path d="M67.1388 20.4459H62.12V1.85889H74.7008C76.0536 1.85889 77.1989 1.99867 78.1368 2.27825C79.0838 2.55782 79.8503 2.95463 80.4365 3.46868C81.0317 3.98274 81.4601 4.60501 81.7217 5.33551C81.9922 6.05698 82.1275 6.86414 82.1275 7.75696C82.1275 8.54157 82.0148 9.22697 81.7893 9.81317C81.5729 10.3994 81.2752 10.9044 80.8965 11.3283C80.5267 11.7431 80.0938 12.0948 79.5978 12.3834C79.1018 12.672 78.5787 12.911 78.0286 13.1004L84.1161 20.4459H78.245L72.6175 13.6009H67.1388V20.4459ZM77.0546 7.72991C77.0546 7.36917 77.005 7.06254 76.9058 6.81002C76.8156 6.55751 76.6533 6.35459 76.4188 6.20128C76.1843 6.03895 75.8687 5.92171 75.4719 5.84956C75.0841 5.77741 74.5971 5.74134 74.0109 5.74134H67.1388V9.71848H74.0109C74.5971 9.71848 75.0841 9.68241 75.4719 9.61026C75.8687 9.53811 76.1843 9.42538 76.4188 9.27207C76.6533 9.10973 76.8156 8.90231 76.9058 8.64979C77.005 8.39727 77.0546 8.09065 77.0546 7.72991Z" fill="#26292E"/>
    <path d="M99.18 10.9089L108 20.4459H101.98L96.1633 14.1826L90.3734 20.4459H84.3671L93.1737 10.9089L84.8 1.85889H90.8198L96.1633 7.6758L101.534 1.85889H107.554L99.18 10.9089Z" fill="#26292E"/>
</svg>
